<svg xmlns="http://www.w3.org/2000/svg" width="64" height="64" viewBox="0 0 64 64">
  <rect width="64" height="64" rx="14" fill="#F6CFD6" />
  <!-- lowercase "t" traced from Instrument Serif Italic — the wordmark glyph,
       baked to a path so it renders without the font. -->
  <path transform="translate(22.45 50.48) scale(1.2031)" d="M4.90 0.43Q3.26 0.43 2.35-0.86Q1.44-2.16 2.06-5.04L6.05-22.42Q6.19-23.14 5.47-23.14L3.65-23.14Q2.98-23.14 2.98-23.76Q2.98-24.10 3.22-24.29Q3.46-24.48 3.79-24.48L5.52-24.48Q6.62-24.48 6.82-25.49L7.97-30.62Q8.11-31.15 8.64-31.15L10.61-31.15Q11.28-31.15 11.14-30.53L9.94-25.20Q9.79-24.48 10.51-24.48L13.25-24.48Q14.06-24.48 14.06-23.86Q14.06-23.14 13.06-23.14L10.46-23.14Q9.41-23.14 9.17-22.13L5.14-4.56Q4.90-3.50 5.21-2.90Q5.52-2.30 6.29-2.30Q7.39-2.30 8.33-3.55Q9.26-4.80 10.32-8.30Q10.51-8.93 10.94-8.93Q11.28-8.93 11.38-8.64Q11.47-8.35 11.23-7.58Q10.32-4.32 9.24-2.59Q8.16-0.86 7.06-0.22Q5.95 0.43 4.90 0.43" fill="#1C1B18" />
</svg>
