<svg xmlns="http://www.w3.org/2000/svg" width="900" height="1200" viewBox="0 0 900 1200">
  <rect width="900" height="1200" fill="#FFFFFF"/>
  <text x="60" y="100" font-family="Georgia, 'Times New Roman', serif" font-size="44" fill="#1A1A1A">The Margins Issue</text>
  <line x1="60" y1="140" x2="840" y2="140" stroke="#1A1A1A" stroke-width="3"/>
  <g fill="#D9D4CA">
    <rect x="60" y="180" width="220" height="8"/><rect x="60" y="204" width="200" height="8"/><rect x="60" y="228" width="215" height="8"/><rect x="60" y="252" width="180" height="8"/><rect x="60" y="276" width="210" height="8"/><rect x="60" y="300" width="195" height="8"/>
    <rect x="320" y="180" width="220" height="8"/><rect x="320" y="204" width="190" height="8"/><rect x="320" y="228" width="210" height="8"/><rect x="320" y="252" width="220" height="8"/><rect x="320" y="276" width="175" height="8"/><rect x="320" y="300" width="205" height="8"/>
    <rect x="580" y="180" width="220" height="8"/><rect x="580" y="204" width="205" height="8"/><rect x="580" y="228" width="185" height="8"/><rect x="580" y="252" width="215" height="8"/><rect x="580" y="276" width="200" height="8"/><rect x="580" y="300" width="160" height="8"/>
  </g>
  <rect x="60" y="360" width="480" height="420" fill="#C2B5A3"/>
  <g fill="#D9D4CA">
    <rect x="580" y="360" width="220" height="8"/><rect x="580" y="384" width="200" height="8"/><rect x="580" y="408" width="215" height="8"/><rect x="580" y="432" width="190" height="8"/><rect x="580" y="456" width="210" height="8"/><rect x="580" y="480" width="170" height="8"/><rect x="580" y="504" width="220" height="8"/><rect x="580" y="528" width="195" height="8"/><rect x="580" y="552" width="205" height="8"/><rect x="580" y="576" width="185" height="8"/><rect x="580" y="600" width="215" height="8"/><rect x="580" y="624" width="150" height="8"/>
  </g>
  <text x="60" y="830" font-family="Georgia, 'Times New Roman', serif" font-size="22" font-style="italic" fill="#8A8478">fig. 1 — the photograph is allowed to break the grid exactly once</text>
  <g fill="#D9D4CA">
    <rect x="60" y="880" width="380" height="8"/><rect x="60" y="904" width="360" height="8"/><rect x="60" y="928" width="375" height="8"/><rect x="60" y="952" width="340" height="8"/>
    <rect x="480" y="880" width="320" height="8"/><rect x="480" y="904" width="340" height="8"/><rect x="480" y="928" width="310" height="8"/><rect x="480" y="952" width="335" height="8"/>
  </g>
  <text x="60" y="1130" font-family="Menlo, Consolas, monospace" font-size="16" fill="#B0A99C">14</text>
</svg>
