<svg xmlns="http://www.w3.org/2000/svg" width="1000" height="1000" viewBox="0 0 1000 1000">
  <rect width="1000" height="1000" fill="#FFFFFF"/>
  <circle cx="95" cy="95" r="30" fill="#2A4D69"/>
  <circle cx="185" cy="95" r="30" fill="#2A4D69"/>
  <circle cx="275" cy="95" r="30" fill="#2A4D69"/>
  <circle cx="365" cy="95" r="30" fill="#2A4D69"/>
  <circle cx="455" cy="95" r="30" fill="#2A4D69"/>
  <circle cx="545" cy="95" r="30" fill="#2A4D69"/>
  <circle cx="635" cy="95" r="30" fill="#2A4D69"/>
  <circle cx="725" cy="95" r="30" fill="#2A4D69"/>
  <circle cx="815" cy="95" r="30" fill="#2A4D69"/>
  <circle cx="905" cy="95" r="30" fill="#2A4D69"/>
  <circle cx="95" cy="185" r="30" fill="#405A6F"/>
  <circle cx="185" cy="185" r="30" fill="#405A6F"/>
  <circle cx="275" cy="185" r="30" fill="#405A6F"/>
  <circle cx="365" cy="185" r="30" fill="#405A6F"/>
  <circle cx="455" cy="185" r="30" fill="#405A6F"/>
  <circle cx="545" cy="185" r="30" fill="#405A6F"/>
  <circle cx="635" cy="185" r="30" fill="#405A6F"/>
  <circle cx="725" cy="185" r="30" fill="#405A6F"/>
  <circle cx="815" cy="185" r="30" fill="#405A6F"/>
  <circle cx="905" cy="185" r="30" fill="#405A6F"/>
  <circle cx="95" cy="275" r="30" fill="#566875"/>
  <circle cx="185" cy="275" r="30" fill="#566875"/>
  <circle cx="275" cy="275" r="30" fill="#566875"/>
  <circle cx="365" cy="275" r="30" fill="#566875"/>
  <circle cx="455" cy="275" r="30" fill="#566875"/>
  <circle cx="545" cy="275" r="30" fill="#566875"/>
  <circle cx="635" cy="275" r="30" fill="#566875"/>
  <circle cx="725" cy="275" r="30" fill="#566875"/>
  <circle cx="815" cy="275" r="30" fill="#566875"/>
  <circle cx="905" cy="275" r="30" fill="#566875"/>
  <circle cx="95" cy="365" r="30" fill="#6C767B"/>
  <circle cx="185" cy="365" r="30" fill="#6C767B"/>
  <circle cx="275" cy="365" r="30" fill="#6C767B"/>
  <circle cx="365" cy="365" r="30" fill="#6C767B"/>
  <circle cx="455" cy="365" r="30" fill="#6C767B"/>
  <circle cx="545" cy="365" r="30" fill="#6C767B"/>
  <circle cx="635" cy="365" r="30" fill="#6C767B"/>
  <circle cx="725" cy="365" r="30" fill="#6C767B"/>
  <circle cx="815" cy="365" r="30" fill="#6C767B"/>
  <circle cx="905" cy="365" r="30" fill="#6C767B"/>
  <circle cx="95" cy="455" r="30" fill="#828481"/>
  <circle cx="185" cy="455" r="30" fill="#828481"/>
  <circle cx="275" cy="455" r="30" fill="#828481"/>
  <circle cx="365" cy="455" r="30" fill="#828481"/>
  <circle cx="455" cy="455" r="30" fill="#828481"/>
  <circle cx="545" cy="455" r="30" fill="#828481"/>
  <circle cx="635" cy="455" r="30" fill="#828481"/>
  <circle cx="725" cy="455" r="30" fill="#828481"/>
  <circle cx="815" cy="455" r="30" fill="#828481"/>
  <circle cx="905" cy="455" r="30" fill="#828481"/>
  <circle cx="95" cy="545" r="30" fill="#999187"/>
  <circle cx="185" cy="545" r="30" fill="#999187"/>
  <circle cx="275" cy="545" r="30" fill="#999187"/>
  <circle cx="365" cy="545" r="30" fill="#999187"/>
  <circle cx="455" cy="545" r="30" fill="#999187"/>
  <circle cx="545" cy="545" r="30" fill="#999187"/>
  <circle cx="635" cy="545" r="30" fill="#999187"/>
  <circle cx="725" cy="545" r="30" fill="#999187"/>
  <circle cx="815" cy="545" r="30" fill="#999187"/>
  <circle cx="905" cy="545" r="30" fill="#999187"/>
  <circle cx="95" cy="635" r="30" fill="#AF9F8D"/>
  <circle cx="185" cy="635" r="30" fill="#AF9F8D"/>
  <circle cx="275" cy="635" r="30" fill="#AF9F8D"/>
  <circle cx="365" cy="635" r="30" fill="#AF9F8D"/>
  <circle cx="455" cy="635" r="30" fill="#AF9F8D"/>
  <circle cx="545" cy="635" r="30" fill="#AF9F8D"/>
  <circle cx="635" cy="635" r="30" fill="#AF9F8D"/>
  <circle cx="725" cy="635" r="30" fill="#AF9F8D"/>
  <circle cx="815" cy="635" r="30" fill="#AF9F8D"/>
  <circle cx="905" cy="635" r="30" fill="#AF9F8D"/>
  <circle cx="95" cy="725" r="30" fill="#C5AD93"/>
  <circle cx="185" cy="725" r="30" fill="#C5AD93"/>
  <circle cx="275" cy="725" r="30" fill="#C5AD93"/>
  <circle cx="365" cy="725" r="30" fill="#C5AD93"/>
  <circle cx="455" cy="725" r="30" fill="#C5AD93"/>
  <circle cx="545" cy="725" r="30" fill="#C5AD93"/>
  <circle cx="635" cy="725" r="30" fill="#C5AD93"/>
  <circle cx="725" cy="725" r="30" fill="#C5AD93"/>
  <circle cx="815" cy="725" r="30" fill="#C5AD93"/>
  <circle cx="905" cy="725" r="30" fill="#C5AD93"/>
  <circle cx="95" cy="815" r="30" fill="#DBBB99"/>
  <circle cx="185" cy="815" r="30" fill="#DBBB99"/>
  <circle cx="275" cy="815" r="30" fill="#DBBB99"/>
  <circle cx="365" cy="815" r="30" fill="#DBBB99"/>
  <circle cx="455" cy="815" r="30" fill="#DBBB99"/>
  <circle cx="545" cy="815" r="30" fill="#DBBB99"/>
  <circle cx="635" cy="815" r="30" fill="#DBBB99"/>
  <circle cx="725" cy="815" r="30" fill="#DBBB99"/>
  <circle cx="815" cy="815" r="30" fill="#DBBB99"/>
  <circle cx="905" cy="815" r="30" fill="#DBBB99"/>
  <circle cx="95" cy="905" r="30" fill="#F2C9A0"/>
  <circle cx="185" cy="905" r="30" fill="#F2C9A0"/>
  <circle cx="275" cy="905" r="30" fill="#F2C9A0"/>
  <circle cx="365" cy="905" r="30" fill="#F2C9A0"/>
  <circle cx="455" cy="905" r="30" fill="#F2C9A0"/>
  <circle cx="545" cy="905" r="30" fill="#F2C9A0"/>
  <circle cx="635" cy="905" r="30" fill="#F2C9A0"/>
  <circle cx="725" cy="905" r="30" fill="#F2C9A0"/>
  <circle cx="815" cy="905" r="30" fill="#F2C9A0"/>
  <circle cx="905" cy="905" r="30" fill="#F2C9A0"/>
</svg>
