<svg xmlns="http://www.w3.org/2000/svg" width="1300" height="850" viewBox="0 0 1300 850">
  <rect width="1300" height="850" fill="#FDFCF9"/>
  <rect x="180" y="140" width="640" height="420" rx="10" fill="none" stroke="#3D6B8E" stroke-width="2"/>
  <rect x="220" y="180" width="240" height="120" rx="6" fill="none" stroke="#3D6B8E" stroke-width="1.5"/>
  <rect x="220" y="330" width="560" height="60" rx="6" fill="none" stroke="#3D6B8E" stroke-width="1.5"/>
  <rect x="220" y="420" width="180" height="48" rx="6" fill="none" stroke="#C73E2E" stroke-width="1.5"/>
  <line x1="180" y1="620" x2="820" y2="620" stroke="#3D6B8E" stroke-width="1"/>
  <line x1="180" y1="600" x2="180" y2="640" stroke="#3D6B8E" stroke-width="1"/>
  <line x1="820" y1="600" x2="820" y2="640" stroke="#3D6B8E" stroke-width="1"/>
  <text x="470" y="660" font-family="Menlo, Consolas, monospace" font-size="18" fill="#3D6B8E">640</text>
  <line x1="880" y1="140" x2="880" y2="560" stroke="#3D6B8E" stroke-width="1"/>
  <line x1="860" y1="140" x2="900" y2="140" stroke="#3D6B8E" stroke-width="1"/>
  <line x1="860" y1="560" x2="900" y2="560" stroke="#3D6B8E" stroke-width="1"/>
  <text x="910" y="360" font-family="Menlo, Consolas, monospace" font-size="18" fill="#3D6B8E">420</text>
  <text x="220" y="500" font-family="Menlo, Consolas, monospace" font-size="14" fill="#C73E2E">cta — 8px radius</text>
  <circle cx="180" cy="140" r="5" fill="#C73E2E"/>
  <circle cx="820" cy="560" r="5" fill="#C73E2E"/>
  <text x="950" y="700" font-family="Menlo, Consolas, monospace" font-size="16" fill="#8A98A8">rev. 3 — unbuilt</text>
</svg>
